<?xml version="1.0" encoding="utf-8" ?>
<svg xmlns="http://www.w3.org/2000/svg" xmlns:xlink="http://www.w3.org/1999/xlink" width="1024" height="1024">
	<path fill="white" d="M0 0L1024 0L1024 1024L0 1024L0 0Z"/>
	<path d="M529.274 18.6629Q530.631 18.5091 531.995 18.4502C535.338 18.3159 538.317 18.6361 541.561 19.4818C558.428 23.8786 575.101 29.7934 591.682 35.1798L651.741 54.2546L701.697 70.1718C711.659 73.2841 722.125 75.9836 731.829 79.7685C735.099 81.0436 738.997 83.1919 741.521 85.6421C747.356 91.3066 758.405 112.979 763.388 121.577L788.3 163.821L942.252 426.005C944.202 429.395 946.627 433.46 947.503 437.305C949.246 444.958 948.122 456.278 948.074 464.393Q947.943 485.742 948.038 507.09L948.144 715.988C948.063 728.738 944.995 738.999 935.596 748.104C930.56 752.982 923.51 756.36 917.518 759.926Q906.176 766.672 894.917 773.556L772.683 847.11L603.966 948.094L555.371 977.191C541.662 985.547 527.717 994.583 513.457 1001.93C506.753 1005.38 501.154 1006.06 493.729 1005.99C486.377 1004.98 480.267 1003.27 474.223 998.81Q472.645 997.648 471.183 996.343Q469.721 995.038 468.388 993.602Q467.055 992.165 465.864 990.609Q464.672 989.053 463.632 987.392C456.141 975.596 449.556 963.04 442.507 950.962L404.534 886.565L282.356 678.935L162.957 475.527Q133.6 426.194 105.102 376.36C97.09 362.44 88.456 348.741 80.8804 334.586C78.0792 329.352 75.8166 324.26 74.9632 318.344Q74.8099 317.25 74.7102 316.15Q74.6105 315.05 74.5647 313.946Q74.5189 312.842 74.5271 311.738Q74.5353 310.633 74.5975 309.53Q74.6597 308.427 74.7757 307.328Q74.8917 306.23 75.0612 305.138Q75.2308 304.047 75.4535 302.965Q75.6762 301.883 75.9515 300.813Q76.2268 299.743 76.5541 298.688Q76.8813 297.633 77.2598 296.595Q77.6382 295.557 78.0669 294.539Q78.4957 293.521 78.9736 292.525Q79.4516 291.529 79.9776 290.557Q80.5037 289.586 81.0766 288.641Q81.6495 287.697 82.2679 286.781Q82.8862 285.866 83.5486 284.982C87.1495 280.186 91.3134 276.803 96.2698 273.481C104.742 267.804 113.732 262.818 122.417 257.468L198.305 211.699Q271.204 166.996 344.887 123.6Q404.168 87.9979 463.81 53.0084Q479.35 43.9284 494.751 34.6146C500.854 30.9478 506.938 26.968 513.24 23.6747C518.458 20.948 523.462 19.489 529.274 18.6629Z"/>
	<path fill="white" d="M624.48 61.4807C638.408 65.4903 652.631 69.9096 666.204 74.974L817.401 335.744L861.692 411.512C865.928 418.871 872.053 426.509 874.805 434.486C877.892 443.431 877.736 483.368 877.602 495.223C875.024 492.076 872.962 487.58 870.865 484.042L852.95 453.271Q818.425 395.056 784.802 336.316L683.899 163.034L643.592 94.2942C637.218 83.3536 630.3 72.7339 624.48 61.4807Z"/>
	<path fill="white" d="M560.632 41.7567C566.584 42.616 572.618 44.9548 578.326 46.8131Q590.548 50.722 602.669 54.9319L800.416 393.709L857.613 491.869C863.325 501.886 872.423 513.961 876.193 524.627C878.373 530.793 877.782 573.613 877.825 583.169C874.01 579.723 866.487 564.638 863.303 559.136C852.28 540.089 841.435 520.863 830.205 501.942L664.509 218.818L604.913 115.75C590.492 90.8988 576.291 65.8556 560.632 41.7567Z"/>
	<path fill="white" d="M528.318 33.5898C532.211 33.365 535.405 33.6285 539.102 34.8036C549.86 49.392 559.177 65.5891 568.742 80.9905C561.062 79.2458 553.906 78.9136 546.324 81.3696C538.489 83.9078 531.228 88.9705 524.154 93.1361Q507.964 102.591 492.012 112.44Q460.457 131.402 428.612 149.873C370.936 183.574 314.088 218.751 256.652 252.862Q227 270.363 197.526 288.163C188.242 293.717 176.822 299.281 168.521 306.021C163.054 310.46 159.358 316.919 157.631 323.7C155.729 331.167 156.179 339.12 159.409 346.153C163.068 354.12 168.214 361.932 172.707 369.483Q183.521 387.545 194.099 405.747L271.271 537.36L474.475 886.163C482.69 900.123 488.996 915.85 506.213 920.16Q507.546 920.496 508.903 920.721Q510.26 920.945 511.631 921.056Q513.001 921.167 514.377 921.164Q515.752 921.16 517.122 921.043Q518.492 920.925 519.848 920.694Q521.203 920.464 522.535 920.121Q523.867 919.778 525.166 919.326Q526.464 918.874 527.721 918.316C536.81 914.316 545.605 907.787 554.188 902.71L620.961 862.862L860.85 719.372C875.269 710.842 889.835 703.852 894.195 686.221C896.484 676.966 894.953 656.1 894.689 645.805L893.129 584.082Q892.474 537.519 892.515 490.952Q892.603 472.34 891.826 453.744C891.579 447.024 891.772 439.83 890.194 433.279C887.479 422.011 862.347 382.822 855.192 370.701L810.811 294.145L725.331 146.631Q706.627 113.794 687.144 81.4127C695.123 83.6856 724.826 92.2197 730.144 96.1425C734.989 99.7157 754.755 135.714 759.041 143.103L882.421 354.149L914.712 409.417C919.341 417.287 929.213 431.885 931.92 440.173C933.965 446.431 932.807 478.137 932.831 486.88Q933.159 550.012 932.79 613.144L932.934 683.291C932.957 694.937 933.314 706.701 932.907 718.336C932.754 722.699 932.268 726.663 930.161 730.583C928.135 734.352 925.197 737.41 921.642 739.761C896.36 756.483 869.53 771.185 843.619 786.926L645.6 905.718L558.847 957.691Q540.106 969.116 521.091 980.079C515.282 983.454 508.895 988.176 502.455 990.069C496.988 991.675 490.668 990.699 485.704 987.984C481.207 985.524 477.972 981.565 475.318 977.281C461.798 955.458 449.291 932.938 436.268 910.812Q399.853 849.928 364.26 788.562L192.266 495.802L116.942 367.086L101.372 340.139C97.6186 333.632 92.5651 326.439 90.4916 319.195C88.2902 311.503 90.0606 303.886 93.9185 297.077C96.4562 292.598 99.6816 289.156 103.979 286.311C112.374 280.756 121.224 275.75 129.837 270.535L185.649 236.9Q289.949 173.318 395.166 111.272Q442.083 82.918 489.513 55.4258C499.41 49.5955 518.404 36.309 528.318 33.5898Z"/>
	<path fill="white" d="M555.318 94.0714C560.549 93.6041 564.599 94.0708 569.327 96.6537C576.331 100.479 581.856 106.659 586.04 113.349C589.707 119.212 592.955 125.364 596.434 131.343Q607.407 149.845 617.981 168.577L652.938 229.069L763.228 418.669L846.64 561.126C851.565 569.493 877.405 610.676 878.766 616.476C879.874 621.198 880.362 676.504 879.332 683.516C878.986 685.864 877.768 688.066 876.432 689.999C874.502 692.792 872.136 694.994 869.307 696.845C863.941 700.354 858.255 703.458 852.781 706.807Q826.835 722.564 800.672 737.956L710.164 792.022L575.524 872.59C559.169 882.365 542.977 892.495 526.487 902.033C523.831 903.57 520.62 905.532 517.581 906.05C511.571 907.073 506.213 904.543 501.461 901.142C495.546 894.576 489.616 882.259 485.018 874.402L450.537 815.104L321.453 593.283L222.704 424.556L189.62 368.647C184.357 359.735 175.713 347.346 172.549 337.859C170.93 333.006 171.348 327.374 173.82 322.88C175.671 319.516 178.331 317.447 181.507 315.43C191.375 309.162 201.689 303.482 211.716 297.463L274.949 259.431L450.543 154.62L521.153 112.698C530.967 106.94 544.858 97.0604 555.318 94.0714Z"/>
	<path d="M824.133 659.03C825.342 659.067 826.693 659.1 827.838 659.514C829.835 660.236 831.777 662.187 832.657 664.099C833.348 665.6 833.409 667.278 832.789 668.814C832.086 670.55 830.866 671.663 829.397 672.762C820.501 679.411 807.684 685.875 797.851 691.782C788.506 697.396 773.399 707.762 763.947 711.711C762.674 711.688 761.34 711.697 760.135 711.236C758.094 710.455 756.027 708.411 755.16 706.411C754.526 704.948 754.499 703.384 755.135 701.913C755.895 700.154 757.182 699.116 758.693 697.998C762.746 695 767.388 692.478 771.71 689.863Q784.978 681.897 798.337 674.087C806.673 669.17 815.27 662.839 824.133 659.03Z"/>
	<path d="M594.69 794.472C596.005 794.512 597.164 794.687 598.413 795.13C600.539 795.884 602.511 797.692 603.424 799.762C604.129 801.362 604.117 803.06 603.433 804.663C602.745 806.274 601.728 807.242 600.339 808.278C596.467 811.167 591.964 813.59 587.833 816.11Q573.708 824.674 559.443 833.004C551.265 837.853 542.014 844.896 533.257 848.117C532.598 848.11 532.168 848.12 531.489 848.037C528.999 847.732 526.944 846.142 525.594 844.074C524.66 842.643 524.214 840.928 524.594 839.239C524.996 837.448 526.135 836.1 527.537 834.976C533.486 830.207 541.233 826.361 547.777 822.396Q571.156 808.305 594.69 794.472Z"/>
	<path d="M806.92 631.002C808.108 630.784 809.163 630.766 810.349 630.984C812.793 631.434 815.454 633.263 816.736 635.398C817.549 636.753 817.803 638.295 817.336 639.814C816.628 642.115 814.56 643.778 812.694 645.143C809.27 647.647 805.255 649.585 801.598 651.74L779.233 665.047C768.063 671.594 757.205 678.923 745.699 684.851C744.729 685.228 743.845 685.383 742.795 685.328C740.857 685.226 738.819 684.282 737.654 682.71C736.358 680.961 736.03 678.503 736.484 676.411C736.924 674.384 738.194 672.417 739.831 671.142C746.442 665.988 758.091 660.194 765.708 655.756Q786.399 643.52 806.92 631.002Z"/>
	<path d="M580.597 766.605C581.262 766.744 581.934 766.869 582.588 767.056C584.902 767.718 586.738 769.582 587.781 771.721C588.549 773.296 588.709 775.004 588.084 776.655C587.358 778.572 585.935 779.656 584.315 780.81C578.784 784.75 572.674 788.06 566.827 791.512L539.802 807.575C532.687 811.823 521.051 820.002 513.859 822.925C512.591 822.744 511.171 822.532 509.994 821.993C508.118 821.135 506.34 819.013 505.703 817.067C505.047 815.06 505.476 812.855 506.565 811.079C507.29 809.898 508.326 809.174 509.461 808.421C519.981 801.44 531.345 795.288 542.187 788.773C553.563 781.939 564.78 774.542 576.401 768.165C577.752 767.424 579.096 766.938 580.597 766.605Z"/>
	<path d="M459.009 602.838C462.046 603.21 501.987 631.365 507.835 635.458C516.578 633.533 525.466 632.113 534.242 630.319C543.667 628.391 553.959 625.308 563.57 625.198C567.572 630.306 571.104 635.989 574.842 641.31C571.313 647.487 565.746 653.103 561.197 658.582C553.132 668.296 544.92 678.12 537.562 688.382C541.515 706.351 545.064 724.725 547.938 742.897C543.404 746.424 538.132 749.358 533.261 752.426C532.358 753.115 531.568 753.449 530.5 753.827C529.3 753.727 528.559 753.471 527.531 752.829C520.997 748.749 514.901 743.297 508.722 738.676C499.932 732.101 490.805 725.97 482.248 719.087C465.245 720.471 445.536 726.007 428.221 728.717C424.933 725.6 417.239 717.474 416.945 712.654C416.699 708.617 448.191 673.179 452.73 667.706C449.384 650.151 445.113 630.603 443.266 612.948C448.09 609.155 453.778 606.067 459.009 602.838Z"/>
	<path fill="white" d="M459.172 620.798C474.443 630.445 489.218 641.016 504.309 650.96C521.737 648.665 539.125 644.318 556.434 641.149C552.699 646.151 548.196 650.75 544.21 655.579L521.28 683.847C522.92 689.989 523.86 696.439 525.035 702.692L531.142 735.341L530.456 735.755C526.245 734.15 521.692 729.725 518.01 727.016C507.268 719.114 496.673 710.934 485.776 703.255C478.035 704.196 470.318 705.839 462.646 707.239C453.094 708.98 443.5 710.599 434.026 712.729Q445.28 699.75 456.342 686.606C460.451 681.78 465.215 676.928 468.675 671.627C465.428 654.688 462.613 637.708 459.172 620.798Z"/>
	<path d="M674.401 496.159C678.026 495.927 681.3 496.482 684.731 497.584C697.274 501.614 709.567 508.193 721.735 513.358C731.362 517.445 744.816 521.521 753.48 527.011C758.927 530.463 762.322 535.31 763.622 541.644C764.387 545.371 764.049 549.313 762.954 552.938C760.925 559.658 757.294 566.367 754.564 572.85L741.843 602.662C738.898 609.708 736.319 617.887 732.104 624.269C728.353 629.948 722.056 633.074 715.569 634.33C712.026 634.568 708.716 633.98 705.357 632.902C693.149 628.983 680.977 622.378 669.226 617.226C659.524 612.973 646.716 608.83 637.93 603.262C632.137 599.589 628.219 594.147 626.804 587.424C626.06 583.887 625.902 579.724 626.868 576.211C629.606 566.263 639.076 547.954 643.65 537.689C647.747 528.496 652.948 512.945 658.465 505.26C662.073 500.234 668.486 497.272 674.401 496.159Z"/>
	<path fill="white" d="M674.471 511.585C676.399 511.343 677.905 511.372 679.775 511.982C694.199 516.691 708.347 523.744 722.286 529.736C729.152 532.687 739.568 536.161 745.675 539.951C747.144 540.862 747.936 542.395 748.701 543.888C748.854 547.062 747.825 550.321 746.661 553.25C741.689 565.761 735.847 578.012 730.605 590.422C727.83 596.991 723.179 610.503 719.7 615.695C718.475 617.525 717.086 618.175 715.101 619.036C714.093 619.212 712.989 619.42 711.966 619.28C707.53 618.671 693.051 611.008 687.541 608.615C674.613 602.998 660.81 598.144 648.332 591.636C646.057 590.449 642.593 588.662 641.29 586.447C640.305 584.771 642.057 579.297 642.704 577.477C645.853 568.621 650.434 559.867 654.182 551.224C658.384 541.533 665.58 522.027 671.033 514.162C671.932 512.865 673.072 512.247 674.471 511.585Z"/>
	<path d="M545.687 162.066C547.51 162.137 548.846 162.15 550.398 163.188C551.815 164.136 552.69 165.801 553.557 167.223C574.654 201.82 594.7 237.216 614.983 272.305C626.047 291.445 637.849 310.296 648.506 329.649C649.605 331.643 651.272 334.206 651.598 336.483C651.847 338.228 651.203 340.685 649.98 341.968C647.246 344.838 630.776 353.762 626.581 356.277L567.716 391.753L455.336 459.708C422.53 479.8 389.817 500.292 356.402 519.357C352.884 521.365 349.599 523.493 345.445 523.649C344.903 523.427 344.355 523.213 343.828 522.954C340.965 521.546 339.109 518.359 337.422 515.753C330.866 505.627 325.129 494.842 318.989 484.445L281.97 422.294Q266.615 397.116 251.787 371.625C247.993 365.233 241.199 356.47 239.174 349.534C238.731 348.015 239.037 346.872 239.831 345.538C241.042 343.503 243.054 341.908 245 340.619C251.316 336.432 258.481 333.068 265.03 329.183L312.585 300.683L482.346 199.161L524.27 173.977C530.431 170.305 539.021 163.916 545.687 162.066Z"/>
	<path fill="white" d="M543.49 180.488C547.291 184.443 558.248 204.68 562.208 211.332Q583.674 247.721 604.545 284.454C614.131 300.974 624.288 317.266 633.456 334.015C620.029 342.678 606.088 350.655 592.423 358.942L511.893 407.73C493.594 418.802 354.761 504.374 349.14 505.262C344.461 499.11 340.628 492.019 336.707 485.368Q327.089 469.258 317.714 453.006L256.96 351.427C267.485 343.949 279.734 337.954 290.836 331.298L368.517 285.002L495.549 209.064C511.531 199.542 527.329 189.709 543.49 180.488Z"/>
	<path d="M566.982 291.643Q568.254 291.52 569.532 291.508Q570.81 291.495 572.084 291.594Q573.358 291.692 574.619 291.901Q575.88 292.109 577.118 292.426Q578.356 292.742 579.562 293.165Q580.768 293.588 581.933 294.114Q583.097 294.639 584.212 295.264Q585.327 295.888 586.384 296.607C592.786 301.029 597.015 308.372 598.267 316.003C599.493 323.476 597.943 331.288 593.425 337.435C588.122 344.652 580.599 348.027 571.967 349.262Q570.811 349.314 569.655 349.277Q568.498 349.24 567.348 349.114Q566.197 348.988 565.06 348.774Q563.923 348.559 562.806 348.258Q561.689 347.956 560.598 347.569Q559.508 347.182 558.45 346.713Q557.393 346.243 556.375 345.693Q555.357 345.143 554.384 344.516Q553.749 344.105 553.135 343.662Q552.521 343.219 551.93 342.746Q551.34 342.272 550.774 341.77Q550.208 341.267 549.668 340.737Q549.128 340.207 548.615 339.65Q548.102 339.093 547.618 338.511Q547.135 337.929 546.681 337.323Q546.227 336.718 545.804 336.09Q545.381 335.462 544.99 334.814Q544.6 334.166 544.242 333.498Q543.885 332.831 543.561 332.147Q543.238 331.463 542.949 330.763Q542.661 330.063 542.408 329.35Q542.155 328.636 541.939 327.911Q541.722 327.186 541.542 326.451Q541.362 325.715 541.22 324.972Q541.087 324.286 540.989 323.593Q540.891 322.901 540.828 322.205Q540.766 321.508 540.739 320.809Q540.713 320.111 540.721 319.412Q540.73 318.713 540.775 318.015Q540.819 317.317 540.9 316.622Q540.98 315.928 541.095 315.238Q541.211 314.549 541.361 313.866Q541.512 313.183 541.697 312.509Q541.882 311.835 542.102 311.171Q542.321 310.507 542.574 309.855Q542.827 309.203 543.113 308.565Q543.399 307.927 543.717 307.304Q544.035 306.682 544.385 306.076Q544.734 305.471 545.115 304.884Q545.495 304.297 545.904 303.73C551.04 296.541 558.479 293.046 566.982 291.643Z"/>
	<path fill="white" d="M567.798 306.577C570.434 306.447 572.725 306.632 575.188 307.656C578.774 309.146 581.594 311.925 582.922 315.601Q583.162 316.266 583.332 316.952Q583.502 317.638 583.601 318.337Q583.699 319.037 583.726 319.743Q583.752 320.45 583.705 321.155Q583.658 321.86 583.54 322.556Q583.421 323.253 583.231 323.934Q583.041 324.614 582.782 325.272Q582.523 325.93 582.198 326.557C579.997 330.709 576.49 332.709 572.148 334.075C568.985 334.228 566.32 334.132 563.466 332.624Q562.835 332.292 562.241 331.897Q561.647 331.502 561.097 331.049Q560.546 330.596 560.044 330.09Q559.542 329.583 559.094 329.029Q558.646 328.474 558.256 327.877Q557.867 327.279 557.54 326.646Q557.213 326.012 556.952 325.348Q556.691 324.685 556.499 323.998C555.523 320.596 555.858 316.944 557.588 313.838C559.884 309.713 563.426 307.868 567.798 306.577Z"/>
</svg>
